<svg xmlns="http://www.w3.org/2000/svg" viewBox="0 0 1022 1024"><path fill="#1877F2" d="M1022 512C1022 229.23 792.77 0 510 0S-2 229.23-2 512c0 255.55 187.23 467.37 432 505.78V660H300V512h130V399.2C430 270.88 508.44 200 625.39 200c56.31 0 115.31 10 115.31 10v126h-64.89c-63.95 0-83.81 39.7-83.81 80.38V512h142.74l-22.81 148H592v357.78c244.77-38.41 432-250.23 432-505.78z"/><path fill="#fff" d="M711.93 660L734.74 512H592v-95.62c0-40.68 19.86-80.38 83.81-80.38h64.89V210s-59-10-115.31-10C508.44 200 430 270.88 430 399.2V512H300v148h130v357.78a517.58 517.58 0 00160 0V660h121.93z"/></svg> 